<svg xmlns="http://www.w3.org/2000/svg">
  <defs>
    <symbol viewBox="0 0 32 32" id="icon-github">
      <path d="M5 5v22h22V5H5zm2 2h18v18H7V7zm8.908 2C11.99 9 9 11.975 9 15.885c0 3.133 1.967 5.815 4.783 6.758.365.064.492-.16.492-.342 0-.174-.007-1.142-.007-1.737 0 0-1.985.428-2.397-.841 0 0-.323-.818-.783-1.032 0 0-.643-.443.047-.435 0 0 .699.056 1.088.73.618 1.095 1.655.776 2.06.594.063-.452.247-.77.453-.951-1.579-.174-3.174-.404-3.174-3.117 0-.778.215-1.166.667-1.666-.072-.183-.317-.944.072-1.92.595-.183 1.951.761 1.951.761a6.93 6.93 0 011.775-.238c.603 0 1.215.088 1.778.239 0 0 1.356-.944 1.95-.762.389.984.142 1.738.071 1.92.452.5.73.889.73 1.666 0 2.728-1.666 2.943-3.244 3.117.262.222.485.642.485 1.308 0 .953-.008 2.136-.008 2.366 0 .182.127.403.484.34C21.088 21.699 23 19.018 23 15.885 23 11.975 19.827 9 15.908 9zm-4.345 9.486c-.056-.016-.104-.006-.12.026s.007.077.063.11c.048.023.103.016.119-.024.016-.032-.007-.08-.063-.112zm.253.237c-.026-.006-.052-.003-.072.017-.04.032-.032.095.016.15.048.04.11.064.15.024.04-.032.033-.094-.015-.15a.192.192 0 00-.079-.041zm.297.367a.095.095 0 00-.084.008c-.048.032-.048.105 0 .168.048.063.12.094.16.062.047-.032.047-.112 0-.174a.152.152 0 00-.076-.064zm.325.396a.09.09 0 00-.083.032c-.039.04-.023.117.04.173.063.064.141.074.181.026.04-.032.017-.12-.039-.176a.175.175 0 00-.1-.055zm.544.317c-.07-.016-.157.006-.173.062-.016.056.04.121.119.137.07.032.158-.002.174-.057.024-.055-.033-.118-.12-.142zm1.07.025c-.078.016-.134.072-.126.135.008.055.087.086.166.07.087-.016.143-.07.127-.127-.008-.056-.086-.087-.166-.078zm-.523.063c-.088 0-.15.047-.15.103 0 .063.063.112.158.104.088 0 .15-.048.15-.104 0-.064-.078-.111-.158-.103z"/>
    </symbol>
    <symbol viewBox="0 0 32 32" id="icon-menu">
      <path d="M 4 7 L 4 9 L 28 9 L 28 7 Z M 4 15 L 4 17 L 28 17 L 28 15 Z M 4 23 L 4 25 L 28 25 L 28 23 Z"/>
    </symbol>
    <symbol viewBox="0 0 24 24" id="icon-instagram">
      <path d="M8 3C5.243 3 3 5.243 3 8v8c0 2.757 2.243 5 5 5h8c2.757 0 5-2.243 5-5V8c0-2.757-2.243-5-5-5H8zm0 2h8c1.654 0 3 1.346 3 3v8c0 1.654-1.346 3-3 3H8c-1.654 0-3-1.346-3-3V8c0-1.654 1.346-3 3-3zm9 1a1 1 0 00-1 1 1 1 0 001 1 1 1 0 001-1 1 1 0 00-1-1zm-5 1c-2.757 0-5 2.243-5 5s2.243 5 5 5 5-2.243 5-5-2.243-5-5-5zm0 2c1.654 0 3 1.346 3 3s-1.346 3-3 3-3-1.346-3-3 1.346-3 3-3z"/>
    </symbol>
    <symbol viewBox="0 0 24 24" id="icon-linkedin">
      <path d="M5 3a2 2 0 00-2 2v14a2 2 0 002 2h14a2 2 0 002-2V5a2 2 0 00-2-2H5zm0 2h14v14H5V5zm2.78 1.316c-.858 0-1.372.516-1.372 1.202 0 .686.514 1.199 1.285 1.199.857 0 1.371-.513 1.371-1.2 0-.685-.514-1.2-1.285-1.2zM6.476 10v7H9v-7H6.477zm4.605 0v7h2.523v-3.826c0-1.14.813-1.303 1.057-1.303s.897.245.897 1.303V17H18v-3.826C18 10.977 17.024 10 15.803 10s-1.873.407-2.198.977V10h-2.523z"/>
    </symbol>
    <symbol viewBox="0 0 50 50" id="icon-close">
      <path d="M 9.15625 6.3125 L 6.3125 9.15625 L 22.15625 25 L 6.21875 40.96875 L 9.03125 43.78125 L 25 27.84375 L 40.9375 43.78125 L 43.78125 40.9375 L 27.84375 25 L 43.6875 9.15625 L 40.84375 6.3125 L 25 22.15625 Z"/>
    </symbol>
    <symbol viewBox="0 0 27 27" id="icon-social">
      <path d="M 18 2 C 16.35499 2 15 3.3549904 15 5 C 15 5.1909529 15.021791 5.3771224 15.056641 5.5585938 L 7.921875 9.7207031 C 7.3985399 9.2778539 6.7320771 9 6 9 C 4.3549904 9 3 10.35499 3 12 C 3 13.64501 4.3549904 15 6 15 C 6.7320771 15 7.3985399 14.722146 7.921875 14.279297 L 15.056641 18.439453 C 15.021555 18.621514 15 18.808386 15 19 C 15 20.64501 16.35499 22 18 22 C 19.64501 22 21 20.64501 21 19 C 21 17.35499 19.64501 16 18 16 C 17.26748 16 16.601593 16.279328 16.078125 16.722656 L 8.9433594 12.558594 C 8.9782095 12.377122 9 12.190953 9 12 C 9 11.809047 8.9782095 11.622878 8.9433594 11.441406 L 16.078125 7.2792969 C 16.60146 7.7221461 17.267923 8 18 8 C 19.64501 8 21 6.6450096 21 5 C 21 3.3549904 19.64501 2 18 2 z M 18 4 C 18.564129 4 19 4.4358706 19 5 C 19 5.5641294 18.564129 6 18 6 C 17.435871 6 17 5.5641294 17 5 C 17 4.4358706 17.435871 4 18 4 z M 6 11 C 6.5641294 11 7 11.435871 7 12 C 7 12.564129 6.5641294 13 6 13 C 5.4358706 13 5 12.564129 5 12 C 5 11.435871 5.4358706 11 6 11 z M 18 18 C 18.564129 18 19 18.435871 19 19 C 19 19.564129 18.564129 20 18 20 C 17.435871 20 17 19.564129 17 19 C 17 18.435871 17.435871 18 18 18 z"/>
    </symbol>
    <symbol viewBox="0 0 430 530" id="icon-tel">
    <g>
	<g>
		<path d="M374.456,293.506c-9.7-10.1-21.4-15.5-33.8-15.5c-12.3,0-24.1,5.3-34.2,15.4l-31.6,31.5c-2.6-1.4-5.2-2.7-7.7-4
			c-3.6-1.8-7-3.5-9.9-5.3c-29.6-18.8-56.5-43.3-82.3-75c-12.5-15.8-20.9-29.1-27-42.6c8.2-7.5,15.8-15.3,23.2-22.8
			c2.8-2.8,5.6-5.7,8.4-8.5c21-21,21-48.2,0-69.2l-27.3-27.3c-3.1-3.1-6.3-6.3-9.3-9.5c-6-6.2-12.3-12.6-18.8-18.6
			c-9.7-9.6-21.3-14.7-33.5-14.7s-24,5.1-34,14.7c-0.1,0.1-0.1,0.1-0.2,0.2l-34,34.3c-12.8,12.8-20.1,28.4-21.7,46.5
			c-2.4,29.2,6.2,56.4,12.8,74.2c16.2,43.7,40.4,84.2,76.5,127.6c43.8,52.3,96.5,93.6,156.7,122.7c23,10.9,53.7,23.8,88,26
			c2.1,0.1,4.3,0.2,6.3,0.2c23.1,0,42.5-8.3,57.7-24.8c0.1-0.2,0.3-0.3,0.4-0.5c5.2-6.3,11.2-12,17.5-18.1c4.3-4.1,8.7-8.4,13-12.9
			c9.9-10.3,15.1-22.3,15.1-34.6c0-12.4-5.3-24.3-15.4-34.3L374.456,293.506z M410.256,398.806
			C410.156,398.806,410.156,398.906,410.256,398.806c-3.9,4.2-7.9,8-12.2,12.2c-6.5,6.2-13.1,12.7-19.3,20
			c-10.1,10.8-22,15.9-37.6,15.9c-1.5,0-3.1,0-4.6-0.1c-29.7-1.9-57.3-13.5-78-23.4c-56.6-27.4-106.3-66.3-147.6-115.6
			c-34.1-41.1-56.9-79.1-72-119.9c-9.3-24.9-12.7-44.3-11.2-62.6c1-11.7,5.5-21.4,13.8-29.7l34.1-34.1c4.9-4.6,10.1-7.1,15.2-7.1
			c6.3,0,11.4,3.8,14.6,7c0.1,0.1,0.2,0.2,0.3,0.3c6.1,5.7,11.9,11.6,18,17.9c3.1,3.2,6.3,6.4,9.5,9.7l27.3,27.3
			c10.6,10.6,10.6,20.4,0,31c-2.9,2.9-5.7,5.8-8.6,8.6c-8.4,8.6-16.4,16.6-25.1,24.4c-0.2,0.2-0.4,0.3-0.5,0.5
			c-8.6,8.6-7,17-5.2,22.7c0.1,0.3,0.2,0.6,0.3,0.9c7.1,17.2,17.1,33.4,32.3,52.7l0.1,0.1c27.6,34,56.7,60.5,88.8,80.8
			c4.1,2.6,8.3,4.7,12.3,6.7c3.6,1.8,7,3.5,9.9,5.3c0.4,0.2,0.8,0.5,1.2,0.7c3.4,1.7,6.6,2.5,9.9,2.5c8.3,0,13.5-5.2,15.2-6.9
			l34.2-34.2c3.4-3.4,8.8-7.5,15.1-7.5c6.2,0,11.3,3.9,14.4,7.3c0.1,0.1,0.1,0.1,0.2,0.2l55.1,55.1
			C420.456,377.706,420.456,388.206,410.256,398.806z"/>
		<path d="M256.056,112.706c26.2,4.4,50,16.8,69,35.8s31.3,42.8,35.8,69c1.1,6.6,6.8,11.2,13.3,11.2c0.8,0,1.5-0.1,2.3-0.2
			c7.4-1.2,12.3-8.2,11.1-15.6c-5.4-31.7-20.4-60.6-43.3-83.5s-51.8-37.9-83.5-43.3c-7.4-1.2-14.3,3.7-15.6,11
			S248.656,111.506,256.056,112.706z"/>
		<path d="M473.256,209.006c-8.9-52.2-33.5-99.7-71.3-137.5s-85.3-62.4-137.5-71.3c-7.3-1.3-14.2,3.7-15.5,11
			c-1.2,7.4,3.7,14.3,11.1,15.6c46.6,7.9,89.1,30,122.9,63.7c33.8,33.8,55.8,76.3,63.7,122.9c1.1,6.6,6.8,11.2,13.3,11.2
			c0.8,0,1.5-0.1,2.3-0.2C469.556,223.306,474.556,216.306,473.256,209.006z"/>
	</g>
</g>
     </symbol>

  </defs>
</svg>